name ./resultDataOpenSim/trcMotMarkerGrf/sub06/grf-05-01.mot
datacolumns 19
datarows 15
range 0.52800000 0.58400000
endheader

                time	     ground_force_vx	     ground_force_vy	     ground_force_vz	     ground_force_px	     ground_force_py	     ground_force_pz	   l_ground_force_vx	   l_ground_force_vy	   l_ground_force_vz	   l_ground_force_px	   l_ground_force_py	   l_ground_force_pz	     ground_torque_x	     ground_torque_y	     ground_torque_z	   l_ground_torque_x	   l_ground_torque_y	   l_ground_torque_z	
          0.52800000	        133.93104012	        641.34248463	        -36.91094313	         -0.82787029	          0.00000000	          0.11318723	          0.00000000	          0.00000000	          0.00000000	          0.00000000	          0.00000000	          0.00000000	          0.00000000	          0.96328680	          0.00000000	          0.00000000	          0.00000000	          0.00000000	
          0.53200000	        144.19505045	        652.89393996	        -36.68330703	         -0.82756925	          0.00000000	          0.11322066	          0.00000000	          0.00000000	          0.00000000	          0.00000000	          0.00000000	          0.00000000	          0.00000000	          0.91180120	          0.00000000	          0.00000000	          0.00000000	          0.00000000	
          0.53600000	        154.23460262	        663.56076879	        -36.39441360	         -0.82731035	          0.00000000	          0.11322235	          0.00000000	          0.00000000	          0.00000000	          0.00000000	          0.00000000	          0.00000000	          0.00000000	          0.88382126	          0.00000000	          0.00000000	          0.00000000	          0.00000000	
          0.54000000	        163.74993862	        673.17048500	        -36.02497311	         -0.82703985	          0.00000000	          0.11320214	          0.00000000	          0.00000000	          0.00000000	          0.00000000	          0.00000000	          0.00000000	          0.00000000	          0.89087249	          0.00000000	          0.00000000	          0.00000000	          0.00000000	
          0.54400000	        172.58201255	        681.57452009	        -35.57203497	         -0.82673370	          0.00000000	          0.11317028	          0.00000000	          0.00000000	          0.00000000	          0.00000000	          0.00000000	          0.00000000	          0.00000000	          0.93591003	          0.00000000	          0.00000000	          0.00000000	          0.00000000	
          0.54800000	        180.68445226	        688.63302682	        -35.04592767	         -0.82638291	          0.00000000	          0.11313665	          0.00000000	          0.00000000	          0.00000000	          0.00000000	          0.00000000	          0.00000000	          0.00000000	          1.01372577	          0.00000000	          0.00000000	          0.00000000	          0.00000000	
          0.55200000	        188.08992535	        694.21645052	        -34.47562441	         -0.82598341	          0.00000000	          0.11311228	          0.00000000	          0.00000000	          0.00000000	          0.00000000	          0.00000000	          0.00000000	          0.00000000	          1.11351979	          0.00000000	          0.00000000	          0.00000000	          0.00000000	
          0.55600000	        194.88431789	        698.22038003	        -33.90707474	         -0.82553809	          0.00000000	          0.11310600	          0.00000000	          0.00000000	          0.00000000	          0.00000000	          0.00000000	          0.00000000	          0.00000000	          1.22231546	          0.00000000	          0.00000000	          0.00000000	          0.00000000	
          0.56000000	        201.18178789	        700.58066799	        -33.38980326	         -0.82505730	          0.00000000	          0.11312189	          0.00000000	          0.00000000	          0.00000000	          0.00000000	          0.00000000	          0.00000000	          0.00000000	          1.32783073	          0.00000000	          0.00000000	          0.00000000	          0.00000000	
          0.56400000	        207.09726520	        701.27957705	        -32.95977450	         -0.82455472	          0.00000000	          0.11315947	          0.00000000	          0.00000000	          0.00000000	          0.00000000	          0.00000000	          0.00000000	          0.00000000	          1.42002828	          0.00000000	          0.00000000	          0.00000000	          0.00000000	
          0.56800000	        212.72494867	        700.33301851	        -32.62456859	         -0.82404403	          0.00000000	          0.11321291	          0.00000000	          0.00000000	          0.00000000	          0.00000000	          0.00000000	          0.00000000	          0.00000000	          1.49141715	          0.00000000	          0.00000000	          0.00000000	          0.00000000	
          0.57200000	        218.13014596	        697.76101939	        -32.35573374	         -0.82353635	          0.00000000	          0.11327260	          0.00000000	          0.00000000	          0.00000000	          0.00000000	          0.00000000	          0.00000000	          0.00000000	          1.53672276	          0.00000000	          0.00000000	          0.00000000	          0.00000000	
          0.57600000	        223.35112937	        693.56758036	        -32.09353524	         -0.82304012	          0.00000000	          0.11332946	          0.00000000	          0.00000000	          0.00000000	          0.00000000	          0.00000000	          0.00000000	          0.00000000	          1.55253350	          0.00000000	          0.00000000	          0.00000000	          0.00000000	
          0.58000000	        228.40095332	        687.74757762	        -31.76375181	         -0.82256145	          0.00000000	          0.11337423	          0.00000000	          0.00000000	          0.00000000	          0.00000000	          0.00000000	          0.00000000	          0.00000000	          1.53712521	          0.00000000	          0.00000000	          0.00000000	          0.00000000	
          0.58400000	        233.26314116	        680.30490255	        -31.30005644	         -0.82210797	          0.00000000	          0.11339869	          0.00000000	          0.00000000	          0.00000000	          0.00000000	          0.00000000	          0.00000000	          0.00000000	          1.49025147	          0.00000000	          0.00000000	          0.00000000	          0.00000000	
